<?xml version="1.0" encoding="utf-8"?>
<!-- Generator: Adobe Illustrator 21.0.0, SVG Export Plug-In . SVG Version: 6.00 Build 0)  -->
<svg version="1.1" xmlns="http://www.w3.org/2000/svg" xmlns:xlink="http://www.w3.org/1999/xlink" x="0px" y="0px"
	 viewBox="0 0 612 792" style="enable-background:new 0 0 612 792;" xml:space="preserve">
<g id="Layer_1" class="st0">
</g>
<g id="Layer_4">
	<rect x="39.5" y="221.5" class="st4" width="532" height="5"/>
	<rect x="39.5" y="226.5" class="st4" width="6.5" height="265"/>
	<rect x="46" y="486" class="st4" width="365.5" height="5.5"/>
	<rect x="45.5" y="365" class="st4" width="32.5" height="4.5"/>
	<rect x="103.5" y="365" class="st4" width="18" height="5"/>
	<rect x="46" y="388.5" class="st4" width="74.5" height="7"/>
	<rect x="115.5" y="369.5" class="st4" width="5" height="19"/>
	<rect x="45.5" y="241.5" class="st4" width="30" height="5.5"/>
	<rect x="138" y="227.5" class="st4" width="5" height="39"/>
	<rect x="114" y="241.5" class="st4" width="24.5" height="5"/>
	<rect x="46" y="322.5" class="st4" width="32.5" height="5.5"/>
	<rect x="114" y="322.5" class="st4" width="29" height="6"/>
	<rect x="276.5" y="226.5" class="st4" width="5" height="67.5"/>
	<rect x="281" y="288.5" class="st4" width="34" height="4.5"/>
	<rect x="336" y="288.5" class="st4" width="35.5" height="5"/>
	<rect x="365.5" y="225.5" class="st4" width="6" height="63"/>
	<rect x="371.5" y="268" class="st4" width="51" height="6"/>
	<rect x="416" y="225" class="st4" width="6.5" height="22.5"/>
	<rect x="416" y="273.5" class="st4" width="6" height="25"/>
	<rect x="231.5" y="324.5" class="st4" width="64" height="3.5"/>
	<rect x="285.5" y="328.5" class="st4" width="5" height="42"/>
	<rect x="231.5" y="328" class="st4" width="6.5" height="10.5"/>
	<rect x="277" y="370" class="st4" width="6" height="116"/>
	<rect x="320" y="324.5" class="st4" width="13" height="3.5"/>
	<rect x="363.5" y="324" class="st4" width="20.5" height="5"/>
	<rect x="324.5" y="328" class="st4" width="5.5" height="60.5"/>
	<rect x="371.5" y="329" class="st4" width="4.5" height="155.5"/>
	<rect x="329" y="360.5" class="st4" width="43" height="4"/>
	<rect x="355.5" y="384.5" class="st4" width="16.5" height="3.5"/>
	<rect x="409" y="323.5" class="st4" width="155.5" height="5"/>
	<rect x="565" y="226.5" class="st4" width="6" height="263.5"/>
	<rect x="375.5" y="440.5" class="st4" width="37.5" height="5.5"/>
	<rect x="434.5" y="440.5" class="st4" width="76" height="4.5"/>
	<rect x="539.5" y="440.5" class="st4" width="25.5" height="5.5"/>
	<rect x="455.5" y="444.5" class="st4" width="5.5" height="61"/>
	<rect x="405" y="491.5" class="st4" width="6.5" height="20.5"/>
	<rect x="521.5" y="485" class="st4" width="42" height="5"/>
	<rect x="411.5" y="506" class="st4" width="115.5" height="6.5"/>
	<rect x="521.5" y="490" class="st4" width="5.5" height="16"/>
	<rect x="416" y="320" class="st4" width="6" height="4.5"/>
	<rect x="371.5" y="329" class="st4" width="5" height="157"/>
</g>
</svg>
