<?xml version="1.0" encoding="utf-8"?>
<!-- Generator: Adobe Illustrator 21.0.0, SVG Export Plug-In . SVG Version: 6.00 Build 0)  -->
<svg version="1.1" xmlns="http://www.w3.org/2000/svg" xmlns:xlink="http://www.w3.org/1999/xlink" x="0px" y="0px"
	 viewBox="0 0 612 792" style="enable-background:new 0 0 612 792;" xml:space="preserve">
<g id="Layer_1" class="st0"></g>
<g id="Layer_5">
	<rect x="39.5" y="221.5" class="st4" width="532" height="5"/>
	<rect x="39.5" y="226.5" class="st4" width="6.5" height="265"/>
	<rect x="45.5" y="241.5" class="st4" width="91.5" height="4.5"/>
	<rect x="138" y="227.5" class="st4" width="5" height="39"/>
	<rect x="44.5" y="322.5" class="st4" width="98.5" height="6"/>
	<rect x="45.5" y="365" class="st4" width="76" height="5"/>
	<rect x="46" y="388.5" class="st4" width="74.5" height="7"/>
	<rect x="115.5" y="369.5" class="st4" width="5" height="19"/>
	<rect x="276.5" y="226.5" class="st4" width="5" height="67.5"/>
	<rect x="281" y="288.5" class="st4" width="90.5" height="5"/>
	<rect x="365.5" y="225.5" class="st4" width="6" height="63"/>
	<rect x="371.5" y="268" class="st4" width="51" height="6"/>
	<rect x="416" y="227" class="st4" width="6.5" height="41"/>
	<rect x="416" y="273.5" class="st4" width="6.5" height="26.5"/>
	<rect x="231.5" y="323.5" class="st4" width="333" height="4.5"/>
	<rect x="285.5" y="328.5" class="st4" width="5" height="42"/>
	<rect x="231.5" y="328" class="st4" width="6.5" height="10.5"/>
	<rect x="324.5" y="328" class="st4" width="5.5" height="60.5"/>
	<rect x="371.5" y="329" class="st4" width="5" height="157"/>
	<rect x="330.5" y="384" class="st4" width="41.5" height="4"/>
	<rect x="329" y="360.5" class="st4" width="43" height="4"/>
	<rect x="277" y="367.5" class="st4" width="6" height="118.5"/>
	<rect x="46" y="486" class="st4" width="365.5" height="5.5"/>
	<rect x="565" y="226.5" class="st4" width="5.5" height="265"/>
	<rect x="377.5" y="440.5" class="st4" width="186" height="5"/>
	<rect x="454" y="445" class="st4" width="7" height="60.5"/>
	<rect x="405" y="491.5" class="st4" width="6.5" height="20.5"/>
	<rect x="521.5" y="485" class="st4" width="42" height="5"/>
	<rect x="521.5" y="490" class="st4" width="5.5" height="23"/>
	<rect x="411.5" y="506" class="st4" width="110" height="7"/>
	<rect x="416" y="298.5" class="st4" width="5" height="24"/>
</g>
</svg>
