<?xml version="1.0" encoding="UTF-8" standalone="no"?>
<!-- Created with Inkscape (http://www.inkscape.org/) -->

<svg
   xmlns:dc="http://purl.org/dc/elements/1.1/"
   xmlns:cc="http://creativecommons.org/ns#"
   xmlns:rdf="http://www.w3.org/1999/02/22-rdf-syntax-ns#"
   xmlns:svg="http://www.w3.org/2000/svg"
   xmlns="http://www.w3.org/2000/svg"
   xmlns:sodipodi="http://sodipodi.sourceforge.net/DTD/sodipodi-0.dtd"
   xmlns:inkscape="http://www.inkscape.org/namespaces/inkscape"
   width="450mm"
   height="565mm"
   viewBox="0 0 1594.4881 2001.9686"
   id="svg2"
   version="1.1"
   inkscape:version="0.91 r13725"
   sodipodi:docname="level.svg">
  <g
     inkscape:groupmode="layer"
     id="layer3"
     inkscape:label="Livello 9"
     style="display:inline">
    <path
       style="fill:none;fill-rule:evenodd;stroke:#000000;stroke-width:1px;stroke-linecap:butt;stroke-linejoin:miter;stroke-opacity:1"
       d="m 279.99994,121.96851 440,0 0,520 -440,0 0,-240 -80,0 0,560 80,0 0,-240 440,0 0,519.99999 -440,0 0,-200 -80,0 0,520 80,0 0,-240 440,0 0,520 -440,0 0,-200 -80,0 0,280 -160.000001,0 0,-80 80.000001,0 0,-1679.99999 -80.000001,0 0,-80.000004 160.000001,0 0,240.000004 80,0 z"
       id="path3383"
       inkscape:connector-curvature="0" />
    <path
       style="fill:none;fill-rule:evenodd;stroke:#000000;stroke-width:1px;stroke-linecap:butt;stroke-linejoin:miter;stroke-opacity:1"
       d="m 879.99994,121.96851 439.99996,0 0,200 80,0 0,-240.000004 160,0 0,80.000004 -80,0 0,1679.99999 80,0 0,80 -160,0 0,-280 -80,0 0,200 -439.99996,0 0,-520 439.99996,0 0,240 80,0 0,-520 -80,0 0,200 -439.99996,0 0,-519.99999 439.99996,0 0,240 80,0 0,-560 -80,0 0,240 -439.99996,0 z"
       id="path3402"
       inkscape:connector-curvature="0" />
    <rect
       style="fill:none;stroke:#000000;stroke-width:1;stroke-miterlimit:4;stroke-dasharray:none;stroke-opacity:1"
       id="rect4306"
       width="360"
       height="440"
       x="319.99994"
       y="161.96851" />
    <rect
       style="fill:none;stroke:#000000;stroke-width:1;stroke-miterlimit:4;stroke-dasharray:none;stroke-opacity:1"
       id="rect4308"
       width="360"
       height="440"
       x="919.99994"
       y="161.96851" />
    <rect
       style="fill:none;stroke:#000000;stroke-width:1;stroke-miterlimit:4;stroke-dasharray:none;stroke-opacity:1"
       id="rect4310"
       width="360"
       height="440"
       x="319.99994"
       y="761.96851" />
    <rect
       style="fill:none;stroke:#000000;stroke-width:1;stroke-miterlimit:4;stroke-dasharray:none;stroke-opacity:1"
       id="rect4312"
       width="360"
       height="440"
       x="919.99994"
       y="761.96851" />
    <rect
       style="fill:none;stroke:#000000;stroke-width:1;stroke-miterlimit:4;stroke-dasharray:none;stroke-opacity:1"
       id="rect4314"
       width="360"
       height="440"
       x="319.99994"
       y="1361.9685" />
    <rect
       style="fill:none;stroke:#000000;stroke-width:1;stroke-miterlimit:4;stroke-dasharray:none;stroke-opacity:1"
       id="rect4316"
       width="360"
       height="440"
       x="919.99994"
       y="1361.9685" />
  </g>
</svg>
